name D:\school\WTK\thesis\model\3dpredictsim\Results\Batchsim_tmt_linear\Pog_s1_tmt_bCst_d00_k500_ig24_pas.mot
datacolumns 128
datarows 4
range 0.00000000 0.03355682
endheader
time	pelvis_tilt	pelvis_list	pelvis_rotation	pelvis_tx	pelvis_ty	pelvis_tz	hip_flexion_l	hip_adduction_l	hip_rotation_l	hip_flexion_r	hip_adduction_r	hip_rotation_r	knee_angle_l	knee_angle_r	ankle_angle_l	ankle_angle_r	subtalar_angle_l	subtalar_angle_r	tmt_angle_l	tmt_angle_r	mtp_angle_l	mtp_angle_r	lumbar_extension	lumbar_bending	lumbar_rotation	arm_flex_l	arm_add_l	arm_rot_l	arm_flex_r	arm_add_r	arm_rot_r	elbow_flex_l	elbow_flex_r	pro_sup_l	pro_sup_r	glut_med1_l/activation	glut_med2_l/activation	glut_med3_l/activation	glut_min1_l/activation	glut_min2_l/activation	glut_min3_l/activation	semimem_l/activation	semiten_l/activation	bifemlh_l/activation	bifemsh_l/activation	sar_l/activation	add_long_l/activation	add_brev_l/activation	add_mag1_l/activation	add_mag2_l/activation	add_mag3_l/activation	tfl_l/activation	pect_l/activation	grac_l/activation	glut_max1_l/activation	glut_max2_l/activation	glut_max3_l/activation	iliacus_l/activation	psoas_l/activation	quad_fem_l/activation	gem_l/activation	peri_l/activation	rect_fem_l/activation	vas_med_l/activation	vas_int_l/activation	vas_lat_l/activation	med_gas_l/activation	lat_gas_l/activation	soleus_l/activation	tib_post_l/activation	flex_dig_l/activation	flex_hal_l/activation	tib_ant_l/activation	per_brev_l/activation	per_long_l/activation	per_tert_l/activation	ext_dig_l/activation	ext_hal_l/activation	ercspn_l/activation	intobl_l/activation	extobl_l/activation	glut_med1_r/activation	glut_med2_r/activation	glut_med3_r/activation	glut_min1_r/activation	glut_min2_r/activation	glut_min3_r/activation	semimem_r/activation	semiten_r/activation	bifemlh_r/activation	bifemsh_r/activation	sar_r/activation	add_long_r/activation	add_brev_r/activation	add_mag1_r/activation	add_mag2_r/activation	add_mag3_r/activation	tfl_r/activation	pect_r/activation	grac_r/activation	glut_max1_r/activation	glut_max2_r/activation	glut_max3_r/activation	iliacus_r/activation	psoas_r/activation	quad_fem_r/activation	gem_r/activation	peri_r/activation	rect_fem_r/activation	vas_med_r/activation	vas_int_r/activation	vas_lat_r/activation	med_gas_r/activation	lat_gas_r/activation	soleus_r/activation	tib_post_r/activation	flex_dig_r/activation	flex_hal_r/activation	tib_ant_r/activation	per_brev_r/activation	per_long_r/activation	per_tert_r/activation	ext_dig_r/activation	ext_hal_r/activation	ercspn_r/activation	intobl_r/activation	extobl_r/activation	
          0.00000000	         -2.91870119	         -2.44601384	          6.48723360	          0.00000000	          0.85464059	         -0.00350828	        -18.04789734	         -2.23071167	          8.47094029	         32.18484287	          3.40403500	         -2.60051728	        -10.22039503	        -16.11335054	         -1.13219496	          6.14496519	         12.92025827	         -2.93070982	          1.96635357	          0.06500143	         23.00952447	         -0.08777995	         -2.14317608	          1.18996731	         -2.03365728	          7.64766424	        -13.50246223	         18.56701430	        -10.25330833	        -13.60345239	          7.66269949	         41.38032974	         13.93728010	         86.51662706	         86.51662706	          0.25309932	          0.08559345	          0.05000018	          0.29511174	          0.19319725	          0.09290366	          0.05000467	          0.05000059	          0.05000050	          0.06813265	          0.09906383	          0.11835027	          0.21278404	          0.05006854	          0.05000757	          0.05000151	          0.28069302	          0.06524938	          0.05000516	          0.05000258	          0.05000175	          0.05000147	          0.33257874	          0.53844680	          0.05000038	          0.05000148	          0.05000168	          0.18329305	          0.05000855	          0.09091329	          0.13944678	          0.26793445	          0.35914036	          0.24649555	          0.22498677	          0.26035045	          0.31477496	          0.05000003	          0.07447003	          0.14970285	          0.05000022	          0.05000005	          0.05000023	          0.05397224	          0.05677994	          0.06076829	          0.05932130	          0.05932128	          0.05000025	          0.05932157	          0.05932150	          0.05931782	          0.05784446	          0.05930561	          0.26028966	          0.05000107	          0.05000078	          0.12721502	          0.30994405	          0.12322733	          0.20011118	          0.12120757	          0.05000046	          0.08364955	          0.11039905	          0.05000054	          0.05000052	          0.05586268	          0.05965237	          0.06827022	          0.55247603	          0.22552345	          0.13045956	          0.05924226	          0.19630921	          0.19951800	          0.16895874	          0.05653685	          0.05932199	          0.05932227	          0.05000008	          0.05000111	          0.05000115	          0.62082397	          0.35050931	          0.19805997	          0.33566114	          0.59101965	          0.35719157	          0.05713475	          0.08310062	          0.08318738	
          0.01118561	         -2.90399081	         -2.57615353	          6.70565966	          0.01743310	          0.85347948	         -0.00324639	        -17.60384412	         -2.53914399	          8.24077833	         31.47196285	          3.87082310	         -2.37589361	        -12.75638977	        -16.38576062	         -2.27519670	          5.44344743	         14.04067869	         -3.44197867	          1.81628663	          0.03066813	         23.99122675	         -0.06742804	         -1.90905688	          1.46546054	         -2.12464615	          7.26761510	        -13.54114493	         18.67362862	        -11.41592541	        -13.59899452	          7.45534642	         42.66097667	         13.88796603	         86.51662706	         86.51662706	          0.21332920	          0.07214397	          0.05932138	          0.24874019	          0.16283973	          0.07830556	          0.05000567	          0.05000063	          0.05000142	          0.05742681	          0.08349797	          0.20682024	          0.29350079	          0.25504317	          0.05944548	          0.13474987	          0.23658725	          0.05499744	          0.05000289	          0.05932082	          0.05932177	          0.05932219	          0.28031973	          0.47876734	          0.05932151	          0.05932199	          0.05005469	          0.15449172	          0.11753699	          0.11753707	          0.11753675	          0.22583312	          0.30270760	          0.20776298	          0.18963401	          0.21944111	          0.26531364	          0.05000097	          0.06276844	          0.12617974	          0.05000021	          0.05000074	          0.05000072	          0.07831455	          0.05995828	          0.05121968	          0.05000005	          0.05000018	          0.12922611	          0.05000026	          0.05000025	          0.05000023	          0.05000015	          0.05000023	          0.21938970	          0.05000015	          0.05000577	          0.10722556	          0.26124216	          0.36244583	          0.26480367	          0.12810585	          0.05000123	          0.07051487	          0.09305380	          0.09049790	          0.11715966	          0.13364532	          0.05027917	          0.05932081	          0.54477985	          0.19008644	          0.10996025	          0.05932261	          0.25710635	          0.26561049	          0.22192918	          0.05000033	          0.05000121	          0.05000082	          0.05932116	          0.07038097	          0.05933706	          0.59111417	          0.46667166	          0.23759393	          0.28291880	          0.60347073	          0.30106520	          0.05000003	          0.07004279	          0.07011593	
          0.02237121	         -2.88455009	         -2.70401093	          6.88769209	          0.03505074	          0.85220309	         -0.00300301	        -17.05012513	         -2.81739055	          7.99758426	         30.53169464	          4.25002601	         -2.09433470	        -15.46743719	        -16.73796160	         -3.50367632	          5.00415299	         15.05430752	         -3.99184348	          1.54684027	         -0.02260370	         24.63982453	         -0.19734397	         -1.66163927	          1.74115850	         -2.20454733	          6.80418619	        -13.58227982	         18.69199822	        -12.53770635	        -13.60173428	          7.33946744	         43.92178805	         13.79979594	         86.51662706	         86.51662706	          0.27283132	          0.06080783	          0.05000011	          0.29969423	          0.13725244	          0.06600129	          0.05000449	          0.05000039	          0.05000028	          0.05000038	          0.07037973	          0.17432555	          0.24738517	          0.21496773	          0.05010548	          0.11357658	          0.24387106	          0.10331494	          0.05000095	          0.05000201	          0.05000145	          0.05000114	          0.23627240	          0.43338766	          0.05000025	          0.05000103	          0.05000022	          0.13021600	          0.09906811	          0.09906818	          0.09906790	          0.19034730	          0.25514228	          0.17511657	          0.15983633	          0.18495993	          0.22362430	          0.17520552	          0.13910026	          0.15159259	          0.38144911	          0.21578199	          0.16655976	          0.10012639	          0.05053687	          0.05000013	          0.31270179	          0.32909543	          0.39822684	          0.42034742	          0.23197389	          0.24226547	          0.08820253	          0.11580629	          0.18491653	          0.08350038	          0.05000250	          0.09037700	          0.22019255	          0.30549393	          0.22319534	          0.15575070	          0.05000055	          0.05943946	          0.13017078	          0.22593757	          0.18326694	          0.12793861	          0.05000064	          0.05000046	          0.45917712	          0.16021797	          0.27083239	          0.05000112	          0.21670689	          0.22927536	          0.18705743	          0.05000059	          0.05000052	          0.05000020	          0.05000002	          0.05932195	          0.05001340	          0.62701346	          0.40575355	          0.20026025	          0.58923145	          0.67478362	          0.35323999	          0.06971564	          0.08350087	          0.05909844	
          0.03355682	         -2.86272251	         -2.82035229	          7.02713078	          0.05255132	          0.85085576	         -0.00272579	        -16.35523807	         -3.05658642	          7.74789916	         29.51597425	          4.60936901	         -1.81088093	        -18.37809457	        -17.03132538	         -4.55674382	          4.73280234	         15.94791641	         -4.57002913	          1.10984710	         -0.04811897	         24.41081177	         -0.19392583	         -1.43022240	          2.00548902	         -2.27386920	          6.31557989	        -13.63113430	         18.65491072	        -13.55352597	        -13.60626883	          7.31892837	         45.11938964	         13.64087691	         86.51662706	         86.51662706	          0.22996067	          0.05125312	          0.05000045	          0.25260265	          0.11568576	          0.05563063	          0.05373587	          0.05000336	          0.05001057	          0.05000055	          0.05932148	          0.17918753	          0.24752832	          0.18120200	          0.05633693	          0.09920999	          0.21771171	          0.08708155	          0.05001247	          0.05000913	          0.05000689	          0.05000517	          0.19914628	          0.36744819	          0.05000111	          0.05000352	          0.05000058	          0.10975479	          0.08350131	          0.08350137	          0.08350112	          0.16043748	          0.21505106	          0.14760000	          0.13472097	          0.15589703	          0.18848593	          0.22519934	          0.12881803	          0.12777388	          0.33465711	          0.24880308	          0.14038867	          0.12776480	          0.05000005	          0.05000008	          0.43847892	          0.52034774	          0.60115336	          0.36912404	          0.39135247	          0.50040629	          0.07762439	          0.12051185	          0.15586012	          0.07038000	          0.05000099	          0.07617588	          0.18559316	          0.25749128	          0.20881859	          0.18022490	          0.05000051	          0.05010362	          0.10971881	          0.32930308	          0.24349837	          0.18078646	          0.05000025	          0.05000023	          0.38702539	          0.13504274	          0.28131010	          0.05000006	          0.28207358	          0.30777258	          0.24633807	          0.05000003	          0.05000008	          0.05000001	          0.05000021	          0.05000133	          0.05000050	          0.78634052	          0.34199634	          0.16879279	          0.53301778	          0.67108229	          0.52130704	          0.10116427	          0.07038016	          0.05000010	
